<?xml version="1.0" encoding="UTF-8" standalone="no"?>
<!-- Created with Inkscape (http://www.inkscape.org/) -->

<svg
   xmlns:dc="http://purl.org/dc/elements/1.1/"
   xmlns:cc="http://creativecommons.org/ns#"
   xmlns:rdf="http://www.w3.org/1999/02/22-rdf-syntax-ns#"
   xmlns:svg="http://www.w3.org/2000/svg"
   xmlns="http://www.w3.org/2000/svg"
   xmlns:xlink="http://www.w3.org/1999/xlink"
   xmlns:sodipodi="http://sodipodi.sourceforge.net/DTD/sodipodi-0.dtd"
   xmlns:inkscape="http://www.inkscape.org/namespaces/inkscape"
   width="256px"
   height="256px"
   viewBox="0 0 256 256"
   version="1.1"
   id="SVGRoot"
   inkscape:version="0.92.4 (unknown)"
   sodipodi:docname="tline.svg"
   inkscape:export-filename="/home/sfalco/tline.svg.png"
   inkscape:export-xdpi="96"
   inkscape:export-ydpi="96">
  <defs
     id="defs815">
    <linearGradient
       id="linearGradient1419">
      <stop
         id="stop1409"
         offset="0"
         stop-color="#ffe400" />
      <stop
         id="stop1411"
         offset="0.2350468"
         stop-color="#ffb600" />
      <stop
         id="stop1413"
         offset="0.69868582"
         stop-color="#ff8800" />
      <stop
         id="stop1415"
         offset="0.92493498"
         stop-color="#f27b0f" />
      <stop
         id="stop1417"
         offset="1"
         stop-color="#e66d1d" />
    </linearGradient>
    <linearGradient
       inkscape:collect="always"
       xlink:href="#linearGradient1419"
       id="linearGradient1504"
       x1="258.5"
       y1="-1.0000001"
       x2="0"
       y2="256"
       gradientUnits="userSpaceOnUse" />
  </defs>
  <sodipodi:namedview
     id="base"
     pagecolor="#ffffff"
     bordercolor="#666666"
     borderopacity="1.0"
     inkscape:pageopacity="0.0"
     inkscape:pageshadow="2"
     inkscape:zoom="2.8284271"
     inkscape:cx="69.13336"
     inkscape:cy="116.5793"
     inkscape:document-units="px"
     inkscape:current-layer="layer1"
     showgrid="false"
     inkscape:window-width="2524"
     inkscape:window-height="1515"
     inkscape:window-x="1920"
     inkscape:window-y="0"
     inkscape:window-maximized="1"
     inkscape:grid-bbox="true"
     inkscape:snap-bbox="true"
     inkscape:snap-global="true" />
  <metadata
     id="metadata818">
    <rdf:RDF>
      <cc:Work
         rdf:about="">
        <dc:format>image/svg+xml</dc:format>
        <dc:type
           rdf:resource="http://purl.org/dc/dcmitype/StillImage" />
        <dc:title />
      </cc:Work>
    </rdf:RDF>
  </metadata>
  <g
     inkscape:label="Layer 1"
     inkscape:groupmode="layer"
     id="layer1">
    <rect
       style="fill:url(#linearGradient1504);fill-opacity:1;stroke:none;stroke-width:0;stroke-miterlimit:4;stroke-dasharray:none;stroke-opacity:1"
       id="rect1496"
       width="258.5"
       height="257"
       x="0"
       y="-1.0000001"
       inkscape:export-xdpi="47.810001"
       inkscape:export-ydpi="47.810001" />
    <text
       xml:space="preserve"
       style="font-style:italic;font-variant:normal;font-weight:bold;font-stretch:normal;font-size:192.11967468px;line-height:1.25;font-family:Utopia;-inkscape-font-specification:'Utopia Bold Italic';font-variant-ligatures:normal;font-variant-position:normal;font-variant-caps:normal;font-variant-numeric:normal;font-variant-alternates:normal;font-feature-settings:normal;text-indent:0;text-align:start;text-decoration:none;text-decoration-line:none;text-decoration-style:solid;text-decoration-color:#000000;letter-spacing:0px;word-spacing:0px;text-transform:none;writing-mode:lr-tb;direction:ltr;text-orientation:mixed;dominant-baseline:auto;baseline-shift:baseline;text-anchor:start;white-space:normal;shape-padding:0;display:inline;opacity:1;vector-effect:none;fill:#000000;fill-opacity:1;stroke:none;stroke-width:1.00062323px;stroke-linecap:butt;stroke-linejoin:miter;stroke-miterlimit:4;stroke-dasharray:none;stroke-dashoffset:0;stroke-opacity:1"
       x="-15.919628"
       y="144.43697"
       id="text1511"
       transform="scale(1.1066352,0.90364011)"
       inkscape:export-xdpi="47.810001"
       inkscape:export-ydpi="47.810001"><tspan
         sodipodi:role="line"
         id="tspan1509"
         x="-15.919628"
         y="144.43697"
         style="stroke-width:1.00062323px">TL</tspan></text>
    <path
       id="path1682"
       title="sin(x)"
       d="m 21.729377,170.43545 c 2.267181,-2.02518 4.534379,-4.05026 6.80156,-6.03404 2.267199,-1.98377 4.534379,-3.92586 6.801578,-5.78699 2.26718,-1.86113 4.534361,-3.64073 6.80156,-5.30305 2.26718,-1.6623 4.534379,-3.20654 6.801559,-4.60197 2.267181,-1.39543 4.534379,-2.64109 6.80156,-3.71252 2.267199,-1.07142 4.534379,-1.96749 6.801577,-2.67105 2.267181,-0.70356 4.534361,-1.21338 6.801557,-1.52025 2.267183,-0.30686 4.534378,-0.40957 6.801561,-0.30718 2.267196,0.10235 4.534379,0.411 6.801575,0.91842 2.26717,0.50742 4.534378,1.21476 6.801561,2.10646 2.267171,0.8917 4.534379,1.96878 6.801549,3.20823 2.267208,1.23948 4.534386,2.64221 6.801586,4.1787 2.26717,1.53648 4.53436,3.20744 6.80155,4.97806 2.26719,1.77061 4.53439,3.64137 6.80156,5.5736 2.26719,1.93226 4.53438,3.92624 6.80157,5.94101 2.26719,2.01478 4.53437,4.05034 6.80157,6.06515 2.26718,2.01482 4.53437,4.00863 6.80156,5.941 2.26719,1.93236 4.53438,3.80281 6.80156,5.5736 2.2672,1.77083 4.53438,3.44131 6.80157,4.97807 2.26719,1.53675 4.53437,2.93889 6.80157,4.17869 2.26718,1.23977 4.53437,2.31618 6.80156,3.20823 2.26718,0.89207 4.53438,1.59864 6.80156,2.10646 2.2672,0.50781 4.53438,0.81565 6.80156,0.91844 2.2672,0.10273 4.53438,-7.3e-4 6.80158,-0.3072 2.26718,-0.30647 4.53436,-0.81708 6.80156,-1.52025 2.26718,-0.70316 4.53438,-1.59998 6.80156,-2.67105 2.2672,-1.07107 4.53438,-2.31738 6.80156,-3.71252 2.2672,-1.39512 4.53438,-2.9399 6.80158,-4.60197 2.26718,-1.66208 4.53438,-3.44207 6.80156,-5.30305 2.26718,-1.86097 4.53438,-3.80331 6.80156,-5.78699 2.2672,-1.98369 4.53438,-4.00886 6.80155,-6.03404"
       style="fill:none;fill-opacity:1;stroke:#000000;stroke-width:8.54994583;stroke-miterlimit:4;stroke-dasharray:none;stroke-opacity:1"
       inkscape:connector-curvature="0"
       inkscape:export-xdpi="47.810001"
       inkscape:export-ydpi="47.810001" />
    <path
       id="path1682-8-5"
       title="sin(x)"
       d="m 22.222199,218.26304 c 2.267181,-2.02518 4.534379,-4.05026 6.80156,-6.03404 2.267199,-1.98377 4.534379,-3.92586 6.801578,-5.78699 2.26718,-1.86113 4.534361,-3.64073 6.80156,-5.30305 2.26718,-1.6623 4.534379,-3.20654 6.801559,-4.60197 2.267181,-1.39543 4.534379,-2.64109 6.80156,-3.71252 2.267199,-1.07142 4.534379,-1.96749 6.801577,-2.67105 2.267181,-0.70356 4.534361,-1.21338 6.801557,-1.52025 2.267183,-0.30686 4.534378,-0.40957 6.801561,-0.30718 2.267196,0.10235 4.534379,0.411 6.801575,0.91842 2.26717,0.50742 4.534378,1.21476 6.801561,2.10646 2.267171,0.8917 4.534379,1.96878 6.801549,3.20823 2.267208,1.23948 4.534394,2.64221 6.801594,4.1787 2.26717,1.53648 4.53436,3.20744 6.80155,4.97806 2.26719,1.77061 4.53439,3.64137 6.80156,5.5736 2.26719,1.93226 4.53438,3.92624 6.80157,5.94101 2.26719,2.01478 4.53437,4.05034 6.80157,6.06515 2.26718,2.01482 4.53437,4.00863 6.80156,5.941 2.26719,1.93236 4.53438,3.80281 6.80156,5.5736 2.2672,1.77083 4.53438,3.44131 6.80157,4.97807 2.26719,1.53675 4.53437,2.93889 6.80157,4.17869 2.26718,1.23977 4.53437,2.31618 6.80156,3.20823 2.26718,0.89207 4.53438,1.59864 6.80156,2.10646 2.2672,0.50781 4.53438,0.81565 6.80156,0.91844 2.2672,0.10273 4.53438,-7.3e-4 6.80158,-0.3072 2.26718,-0.30647 4.53436,-0.81708 6.80156,-1.52025 2.26718,-0.70316 4.53438,-1.59998 6.80156,-2.67105 2.2672,-1.07107 4.53438,-2.31738 6.80156,-3.71252 2.2672,-1.39512 4.53438,-2.9399 6.80158,-4.60197 2.26718,-1.66208 4.53438,-3.44207 6.80156,-5.30305 2.26718,-1.86097 4.53438,-3.80331 6.80156,-5.78699 2.2672,-1.98369 4.53438,-4.00886 6.80155,-6.03404"
       style="fill:none;fill-opacity:1;stroke:#000000;stroke-width:8.54994583;stroke-miterlimit:4;stroke-dasharray:none;stroke-opacity:1"
       inkscape:connector-curvature="0"
       inkscape:export-xdpi="47.810001"
       inkscape:export-ydpi="47.810001" />
    <path
       id="path1682-8"
       title="sin(x)"
       d="m 22.222199,194.92852 c 2.267181,-2.02518 4.534379,-4.05026 6.80156,-6.03404 2.267199,-1.98377 4.534379,-3.92586 6.801578,-5.78699 2.26718,-1.86113 4.534361,-3.64073 6.80156,-5.30305 2.26718,-1.6623 4.534379,-3.20654 6.801559,-4.60197 2.267181,-1.39543 4.534379,-2.64109 6.80156,-3.71252 2.267199,-1.07142 4.534379,-1.96749 6.801577,-2.67105 2.267181,-0.70356 4.534361,-1.21338 6.801557,-1.52025 2.267183,-0.30686 4.534378,-0.40957 6.801561,-0.30718 2.267196,0.10235 4.534379,0.411 6.801575,0.91842 2.26717,0.50742 4.534378,1.21476 6.801561,2.10646 2.267171,0.8917 4.534379,1.96878 6.801549,3.20823 2.267208,1.23948 4.534394,2.64221 6.801594,4.1787 2.26717,1.53648 4.53436,3.20744 6.80155,4.97806 2.26719,1.77061 4.53439,3.64137 6.80156,5.5736 2.26719,1.93226 4.53438,3.92624 6.80157,5.94101 2.26719,2.01478 4.53437,4.05034 6.80157,6.06515 2.26718,2.01482 4.53437,4.00863 6.80156,5.941 2.26719,1.93236 4.53438,3.80281 6.80156,5.5736 2.2672,1.77083 4.53438,3.44131 6.80157,4.97807 2.26719,1.53675 4.53437,2.93889 6.80157,4.17869 2.26718,1.23977 4.53437,2.31618 6.80156,3.20823 2.26718,0.89207 4.53438,1.59864 6.80156,2.10646 2.2672,0.50781 4.53438,0.81565 6.80156,0.91844 2.2672,0.10273 4.53438,-7.3e-4 6.80158,-0.3072 2.26718,-0.30647 4.53436,-0.81708 6.80156,-1.52025 2.26718,-0.70316 4.53438,-1.59998 6.80156,-2.67105 2.2672,-1.07107 4.53438,-2.31738 6.80156,-3.71252 2.2672,-1.39512 4.53438,-2.9399 6.80158,-4.60197 2.26718,-1.66208 4.53438,-3.44207 6.80156,-5.30305 2.26718,-1.86097 4.53438,-3.80331 6.80156,-5.78699 2.2672,-1.98369 4.53438,-4.00886 6.80155,-6.03404"
       style="fill:none;fill-opacity:1;stroke:#000000;stroke-width:8.54994583;stroke-miterlimit:4;stroke-dasharray:none;stroke-opacity:1"
       inkscape:connector-curvature="0"
       inkscape:export-xdpi="47.810001"
       inkscape:export-ydpi="47.810001" />
  </g>
</svg>
